<svg width="16" height="17" viewBox="0 0 16 17" fill="none" xmlns="http://www.w3.org/2000/svg">
<g clip-path="url(#clip0_101_4226)">
<path d="M12.618 5.42859C12.618 2.87976 10.5443 0.806152 7.99561 0.806152C5.44678 0.806152 3.37317 2.87976 3.37317 5.42859C3.37317 7.00732 4.16895 8.40356 5.38013 9.23779C4.24927 9.62805 3.21265 10.2727 2.3418 11.1436C0.831665 12.6537 0 14.6616 0 16.7972H1.24927C1.24927 13.0774 4.27563 10.051 7.99561 10.051C10.5443 10.051 12.618 7.97742 12.618 5.42859ZM7.99561 8.80176C6.13562 8.80176 4.62244 7.28857 4.62244 5.42859C4.62244 3.5686 6.13562 2.05542 7.99561 2.05542C9.85547 2.05542 11.3687 3.5686 11.3687 5.42859C11.3687 7.28857 9.85547 8.80176 7.99561 8.80176ZM16 12.2998L13.0597 15.2401L12.1763 14.3567L13.6398 12.8932H12.5563C11.0594 12.8932 9.84058 14.1111 9.83936 15.6079L9.83826 16.7977L8.58899 16.7968L8.58997 15.6068C8.5918 13.4216 10.3711 11.6438 12.5563 11.6438H13.5773L12.1763 10.2428L13.0597 9.3595L16 12.2998Z" fill="#CFCFCF"/>
</g>
<defs>
<clipPath id="clip0_101_4226">
<rect width="16" height="16" fill="white" transform="translate(0 0.806152)"/>
</clipPath>
</defs>
</svg>
