<svg width="113" height="113" viewBox="0 0 113 113" fill="none" xmlns="http://www.w3.org/2000/svg">
<path opacity="0.3" fill-rule="evenodd" clip-rule="evenodd" d="M56.445 0.272217C25.4345 0.272217 0.322754 25.4402 0.322754 56.4507C0.322754 87.4612 25.4345 112.629 56.445 112.629C87.5117 112.629 112.68 87.4612 112.68 56.4507C112.68 25.4402 87.5117 0.272217 56.445 0.272217ZM36.8381 33.9792C32.1841 33.9792 28.4113 37.752 28.4113 42.406C28.4113 47.0599 32.1841 50.8327 36.8381 50.8327C41.4921 50.8327 45.2649 47.0599 45.2649 42.406C45.2649 37.752 41.4921 33.9792 36.8381 33.9792ZM76.1645 33.9792C71.5105 33.9792 67.7377 37.752 67.7377 42.406C67.7377 47.0599 71.5105 50.8327 76.1645 50.8327C80.8185 50.8327 84.5913 47.0599 84.5913 42.406C84.5913 37.752 80.8185 33.9792 76.1645 33.9792ZM27.7365 87.3486C32.2308 75.832 43.4103 67.6862 56.4999 67.6862C69.5894 67.6862 80.769 75.832 85.2632 87.3486H75.8814C71.9489 80.6634 64.8143 76.1129 56.4999 76.1129C48.1855 76.1129 40.9946 80.6634 37.1183 87.3486H27.7365ZM11.5591 56.4506C11.5591 81.2815 31.671 101.393 56.5019 101.393C81.3328 101.393 101.445 81.2815 101.445 56.4506C101.445 31.6198 81.3328 11.5079 56.5019 11.5079C31.671 11.5079 11.5591 31.6198 11.5591 56.4506Z" fill="#E6AC3C"/>
</svg>
